<svg width="2400" height="1350" viewBox="0 0 2400 1350" fill="none" xmlns="http://www.w3.org/2000/svg">
  <defs>
    <linearGradient id="bg" x1="0" y1="0" x2="2400" y2="1350"><stop stop-color="#030614"/><stop offset=".52" stop-color="#0B1D35"/><stop offset="1" stop-color="#01030A"/></linearGradient>
    <radialGradient id="halo" cx="0" cy="0" r="1" gradientUnits="userSpaceOnUse" gradientTransform="translate(1300 576) rotate(105) scale(770 510)"><stop stop-color="#53E7FF" stop-opacity=".50"/><stop offset=".45" stop-color="#8B5CFF" stop-opacity=".22"/><stop offset="1" stop-color="#8B5CFF" stop-opacity="0"/></radialGradient>
    <radialGradient id="amber" cx="0" cy="0" r="1" gradientUnits="userSpaceOnUse" gradientTransform="translate(1890 800) rotate(18) scale(460 320)"><stop stop-color="#FFB36B" stop-opacity=".42"/><stop offset="1" stop-color="#FFB36B" stop-opacity="0"/></radialGradient>
    <linearGradient id="chain" x1="610" y1="642" x2="1970" y2="650" gradientUnits="userSpaceOnUse"><stop stop-color="#6EF2FF"/><stop offset=".46" stop-color="#A78BFA"/><stop offset="1" stop-color="#FFB36B"/></linearGradient>
    <linearGradient id="glass" x1="0" y1="0" x2="1" y2="1"><stop stop-color="#FFFFFF" stop-opacity=".16"/><stop offset="1" stop-color="#FFFFFF" stop-opacity=".035"/></linearGradient>
    <filter id="blur"><feGaussianBlur stdDeviation="45"/></filter>
    <filter id="glow" x="-40%" y="-40%" width="180%" height="180%"><feGaussianBlur stdDeviation="10" result="b"/><feMerge><feMergeNode in="b"/><feMergeNode in="SourceGraphic"/></feMerge></filter>
    <clipPath id="head"><path d="M458 330c-86 49-145 142-145 248 0 151 115 276 262 292 23 3 38 26 32 49l-31 128c-6 25 13 49 39 49h217c24 0 42-19 42-42V891c0-20 14-37 34-41 139-29 244-152 244-300 0-169-137-306-306-306H606c-54 0-104 14-148 86Z"/></clipPath>
  </defs>
  <rect width="2400" height="1350" fill="url(#bg)"/>
  <circle cx="1300" cy="576" r="680" fill="url(#halo)" filter="url(#blur)"/>
  <circle cx="1890" cy="800" r="430" fill="url(#amber)" filter="url(#blur)"/>
  <g opacity=".18">
    <path d="M0 1070H2400M0 950H2400M0 830H2400M0 710H2400M0 590H2400" stroke="#BEEBFF" stroke-opacity=".06"/>
    <path d="M330 140V1210M690 140V1210M1050 140V1210M1410 140V1210M1770 140V1210" stroke="#BEEBFF" stroke-opacity=".04"/>
  </g>

  <g transform="translate(245 216)">
    <g clip-path="url(#head)">
      <rect width="930" height="930" fill="#061225" fill-opacity=".72"/>
      <path d="M126 616c120-91 227-112 322-62 75 39 151 41 228 6 58-26 103-67 136-122" stroke="#7FE8FF" stroke-opacity=".18" stroke-width="2"/>
      <path d="M136 746c88-47 171-42 250 16 78 57 160 59 247 7" stroke="#FFB36B" stroke-opacity=".16" stroke-width="2"/>
      <circle cx="262" cy="402" r="11" fill="#7FE8FF"/><circle cx="382" cy="344" r="13" fill="#7FE8FF"/><circle cx="520" cy="330" r="11" fill="#A78BFA"/><circle cx="650" cy="382" r="12" fill="#A78BFA"/><circle cx="748" cy="496" r="11" fill="#FFB36B"/><circle cx="660" cy="640" r="11" fill="#7FE8FF"/><circle cx="452" cy="690" r="12" fill="#FFB36B"/>
      <path d="M262 402L382 344L520 330L650 382L748 496L660 640L452 690L262 402Z" stroke="url(#chain)" stroke-width="4"/>
      <path d="M382 344L660 640M520 330L452 690M650 382L452 690" stroke="#FFFFFF" stroke-opacity=".12" stroke-width="2"/>
    </g>
    <path d="M458 330c-86 49-145 142-145 248 0 151 115 276 262 292 23 3 38 26 32 49l-31 128c-6 25 13 49 39 49h217c24 0 42-19 42-42V891c0-20 14-37 34-41 139-29 244-152 244-300 0-169-137-306-306-306H606c-54 0-104 14-148 86Z" stroke="#D8F7FF" stroke-opacity=".30" stroke-width="3"/>
  </g>

  <g filter="url(#glow)">
    <path d="M804 662c134-70 250-82 348-36 97 46 140 145 236 148 88 3 153-75 223-154 78-88 168-174 314-153" stroke="url(#chain)" stroke-width="8" stroke-linecap="round"/>
    <path d="M804 662c134-70 250-82 348-36 97 46 140 145 236 148 88 3 153-75 223-154 78-88 168-174 314-153" stroke="#D8F7FF" stroke-opacity=".08" stroke-width="36" stroke-linecap="round"/>
  </g>

  <g transform="translate(1244 330)">
    <rect width="510" height="370" rx="36" fill="url(#glass)" stroke="#CFF8FF" stroke-opacity=".20"/>
    <text x="46" y="70" fill="#DDFBFF" font-size="27" font-weight="700" font-family="Inter, Segoe UI, Arial">P300 + LLM selector</text>
    <text x="46" y="105" fill="#AFC7E8" font-size="18" font-family="Inter, Segoe UI, Arial">method motif from ChatBCI / ChatBCI-Assist</text>
    <g transform="translate(58 142)">
      <rect x="0" y="0" width="54" height="54" rx="10" fill="#7FE8FF" fill-opacity=".18" stroke="#7FE8FF" stroke-opacity=".40"/>
      <rect x="70" y="0" width="54" height="54" rx="10" fill="#FFFFFF" fill-opacity=".055" stroke="#FFFFFF" stroke-opacity=".12"/>
      <rect x="140" y="0" width="54" height="54" rx="10" fill="#FFFFFF" fill-opacity=".055" stroke="#FFFFFF" stroke-opacity=".12"/>
      <rect x="210" y="0" width="54" height="54" rx="10" fill="#A78BFA" fill-opacity=".16" stroke="#A78BFA" stroke-opacity=".40"/>
      <rect x="0" y="70" width="54" height="54" rx="10" fill="#FFFFFF" fill-opacity=".055" stroke="#FFFFFF" stroke-opacity=".12"/>
      <rect x="70" y="70" width="54" height="54" rx="10" fill="#FFB36B" fill-opacity=".18" stroke="#FFB36B" stroke-opacity=".40"/>
      <rect x="140" y="70" width="54" height="54" rx="10" fill="#FFFFFF" fill-opacity=".055" stroke="#FFFFFF" stroke-opacity=".12"/>
      <rect x="210" y="70" width="54" height="54" rx="10" fill="#FFFFFF" fill-opacity=".055" stroke="#FFFFFF" stroke-opacity=".12"/>
    </g>
    <path d="M356 164c48 26 74 60 78 101 4 42-16 79-60 112" stroke="#7FE8FF" stroke-opacity=".48" stroke-width="4" stroke-linecap="round"/>
    <text x="332" y="260" fill="#F6FBFF" font-size="22" font-family="Inter, Segoe UI, Arial">adaptive</text>
    <text x="332" y="292" fill="#F6FBFF" font-size="22" font-family="Inter, Segoe UI, Arial">stopping</text>
  </g>

  <g transform="translate(1648 746)">
    <path d="M0 48c0-27 22-48 48-48h448c27 0 48 21 48 48v190c0 27-21 48-48 48H213l-86 74 18-74H48c-26 0-48-21-48-48V48Z" fill="url(#glass)" stroke="#CFF8FF" stroke-opacity=".22"/>
    <text x="42" y="78" fill="#F4FCFF" font-size="30" font-weight="700" font-family="Inter, Segoe UI, Arial">I need some water.</text>
    <text x="42" y="124" fill="#AFC7E8" font-size="21" font-family="Inter, Segoe UI, Arial">phrase-level completion from sparse intent</text>
    <path d="M42 158h408" stroke="#7FE8FF" stroke-opacity=".22"/>
    <text x="42" y="205" fill="#FFCD94" font-size="23" font-weight="650" font-family="Inter, Segoe UI, Arial">prior evidence: 80.68% KS</text>
    <text x="42" y="244" fill="#BFD5F2" font-size="19" font-family="Inter, Segoe UI, Arial">ChatBCI improvised spelling, Sci Rep 2026</text>
  </g>

  <g transform="translate(168 142)">
    <text fill="#8FDFFF" font-size="21" letter-spacing="5" font-family="Inter, Segoe UI, Arial">BCI · LANGUAGE · ASSISTIVE AI</text>
    <text y="116" fill="#F6FBFF" font-size="92" font-weight="780" font-family="Inter, Segoe UI, Arial">BCI-Language</text>
    <text y="216" fill="#F6FBFF" font-size="92" font-weight="780" font-family="Inter, Segoe UI, Arial">Copilot</text>
    <text y="292" fill="#A9C6E8" font-size="30" font-family="Inter, Segoe UI, Arial">Neural intent decoding meets predictive communication</text>
  </g>

  <g transform="translate(168 998)">
    <rect width="820" height="126" rx="28" fill="url(#glass)" stroke="#CFF8FF" stroke-opacity=".14"/>
    <text x="36" y="47" fill="#DDFBFF" font-size="25" font-weight="700" font-family="Inter, Segoe UI, Arial">Published prior-work signals</text>
    <text x="36" y="86" fill="#AFC7E8" font-size="21" font-family="Inter, Segoe UI, Arial">53.22% fewer keystrokes · 62.14% less time · +229.48% ITR</text>
  </g>
  <text x="168" y="1238" fill="#7FA3D1" font-size="21" font-family="Inter, Segoe UI, Arial">Visual references: ChatBCI, Scientific Reports 2026; ChatBCI-Assist, IEEE TBME 2026. Research prototype, not a clinical communication device.</text>
</svg>
